# xmcd CD database file
#
# Track frame offsets:
#	150
#	14554
#	32905
#	42873
#	61904
#	76610
#	96783
#	109635
#	126085
#	147960
#	165235
#
# Disc length: 2440 seconds
#
# Revision: 1
# Processed by: cddbd v1.5.2PL0 Copyright (c) Steve Scherf et al.
# Submitted via: CDex 1.51
#
DISCID=8109860b
DTITLE=勝手にしやがれ - LET'S GET LOST
DYEAR=2007
DGENRE=Jazz
TTITLE0=IS YOU IS, OR IS YOU AIN'T MY BABY?
TTITLE1=OROKAMONO
TTITLE2=BLACK EYES
TTITLE3=SLOW NA BOOGIE NI SHITEKURE (I WANT YOU)
TTITLE4=YOU'D BE SO NICE TO COME HOME TO (KATTENI-SHIYAGARE+MIKA NAKASHIMA)
TTITLE5=TOPSY
TTITLE6=SHONER GIGOLO -JUST A GIGOLO-
TTITLE7=SASURAI
TTITLE8=DONAUWELLEN
TTITLE9=FIESTA
TTITLE10=LET'S GET LOST
EXTD=YEAR: 2007
EXTT0=
EXTT1=
EXTT2=
EXTT3=
EXTT4=
EXTT5=
EXTT6=
EXTT7=
EXTT8=
EXTT9=
EXTT10=
PLAYORDER=
